<svg width="28" height="28" viewBox="0 0 28 28" fill="none" xmlns="http://www.w3.org/2000/svg">
<g clip-path="url(#clip0_3548_3086)">
<path d="M22.568 26.5202C22.813 26.5202 23.0487 26.6153 23.2254 26.7854C24.3771 27.8977 26.0576 28.268 27.5517 27.8048C26.5903 25.8021 26.4574 23.5074 27.2022 21.3828C28.127 18.7398 28.3583 16.0902 27.3061 13.4334C26.3819 11.0994 24.598 9.16016 22.34 8.05438C22.4794 8.79868 22.5494 9.55446 22.5489 10.3119C22.5489 13.5483 21.3047 16.5922 19.045 18.8825C16.7854 21.1734 13.7562 22.4618 10.5154 22.5099C9.91551 22.5192 9.31613 22.4842 8.72168 22.406C10.5029 25.5276 13.8618 27.5609 17.5526 27.6156C19.167 27.6407 20.7174 27.3022 22.1611 26.6126C22.2886 26.5519 22.4275 26.5202 22.5686 26.5202H22.568Z" fill="#FF625D"/>
<path d="M10.5416 0.00218468C4.79284 -0.112112 0.013701 4.53851 2.9125e-05 10.2862C-0.00325212 11.6905 0.270732 13.0517 0.814873 14.333C0.822529 14.3516 0.830185 14.3708 0.836748 14.3899C1.58159 16.5145 1.4487 18.8087 0.487295 20.8119C1.98136 21.2751 3.66136 20.9048 4.81362 19.7925C5.09745 19.5185 5.52183 19.4491 5.87839 19.6197C7.32214 20.3093 8.87253 20.6484 10.4869 20.6227C16.1908 20.5379 20.6588 16.0092 20.6582 10.3124C20.6582 4.73976 16.1197 0.115388 10.5416 0.00327843V0.00218468ZM4.81964 11.8513C3.99386 11.8513 3.32394 11.183 3.32394 10.3584C3.32394 9.53367 3.99331 8.86539 4.81964 8.86539C5.64597 8.86539 6.31534 9.53367 6.31534 10.3584C6.31534 11.183 5.64597 11.8513 4.81964 11.8513ZM10.3289 11.8513C9.50308 11.8513 8.83315 11.183 8.83315 10.3584C8.83315 9.53367 9.50253 8.86539 10.3289 8.86539C11.1552 8.86539 11.8246 9.53367 11.8246 10.3584C11.8246 11.183 11.1552 11.8513 10.3289 11.8513ZM15.8386 11.8513C15.0128 11.8513 14.3429 11.183 14.3429 10.3584C14.3429 9.53367 15.0123 8.86539 15.8386 8.86539C16.6649 8.86539 17.3343 9.53367 17.3343 10.3584C17.3343 11.183 16.6649 11.8513 15.8386 11.8513Z" fill="#FF625D"/>
</g>
<defs>
<clipPath id="clip0_3548_3086">
<rect width="28" height="28" fill="white"/>
</clipPath>
</defs>
</svg>
