<svg width="28" height="28" viewBox="0 0 28 28" fill="none" xmlns="http://www.w3.org/2000/svg">
<g clip-path="url(#clip0_3548_2863)">
<path d="M3.22884 21.8389C2.29312 21.8389 1.37927 21.5999 0.550738 21.1351C0.124714 20.9158 -0.040445 20.3662 0.213857 19.9533C1.05989 18.6014 1.3656 16.9487 0.977856 15.3945C0.576989 13.7834 -0.00435054 12.4266 2.45504e-05 10.7209C0.0142436 4.73702 4.99528 -0.114308 10.9733 0.00217677C16.7473 0.118661 21.5058 4.97218 21.5058 10.7472C21.5058 18.2897 13.6011 23.5856 6.62226 20.673C5.66029 21.4282 4.45058 21.8389 3.22884 21.8389ZM2.09186 19.997C3.40658 20.4055 4.88481 20.0791 5.89873 19.0991C6.14866 18.8573 6.52218 18.7966 6.83555 18.9465C12.8103 21.8028 19.8421 17.3255 19.8421 10.7466C19.8421 5.83733 15.8482 1.76311 10.9394 1.66413C5.88069 1.5646 1.67568 5.66179 1.66365 10.7248C1.65982 12.3446 2.29202 13.6396 2.63711 15.1741C3.00079 16.7912 2.80883 18.5013 2.09186 19.997Z" fill="black"/>
<path d="M24.7705 28C23.5488 28 22.3396 27.5887 21.3776 26.834C17.6665 28.3828 13.2515 27.6773 10.2086 25.0496C9.86077 24.7493 9.82249 24.2243 10.1227 23.8765C10.423 23.5287 10.948 23.4904 11.2958 23.7907C13.9947 26.1215 17.9476 26.6459 21.1638 25.1081C21.4772 24.9583 21.8507 25.019 22.1006 25.2607C23.1145 26.2407 24.5928 26.5672 25.9075 26.1586C25.0615 24.3944 24.9444 22.3726 25.6001 20.5012C25.6062 20.4843 25.6127 20.4679 25.6193 20.4515C26.0978 19.3227 26.3395 18.1234 26.3362 16.8864C26.3308 14.7054 25.6056 12.688 24.2378 11.0523C23.9431 10.6996 23.9901 10.1751 24.3428 9.88091C24.695 9.58614 25.2201 9.63317 25.5143 9.98591C27.1106 11.8961 27.9933 14.3456 27.9993 16.8831C28.0026 18.3367 27.721 19.7471 27.161 21.076C26.573 22.7779 26.8432 24.5995 27.7849 26.1149C28.0398 26.5283 27.8746 27.0774 27.4481 27.2972C26.6195 27.7621 25.7057 28.0011 24.77 28.0011L24.7705 28Z" fill="black"/>
<path d="M10.7528 12.104C11.4795 12.104 12.0686 11.5151 12.0686 10.7887C12.0686 10.0624 11.4795 9.47351 10.7528 9.47351C10.0261 9.47351 9.43701 10.0624 9.43701 10.7887C9.43701 11.5151 10.0261 12.104 10.7528 12.104Z" fill="black"/>
<path d="M5.90416 12.104C6.63085 12.104 7.21994 11.5151 7.21994 10.7887C7.21994 10.0624 6.63085 9.47351 5.90416 9.47351C5.17747 9.47351 4.58838 10.0624 4.58838 10.7887C4.58838 11.5151 5.17747 12.104 5.90416 12.104Z" fill="black"/>
<path d="M15.6009 12.104C16.3276 12.104 16.9167 11.5151 16.9167 10.7887C16.9167 10.0624 16.3276 9.47351 15.6009 9.47351C14.8743 9.47351 14.2852 10.0624 14.2852 10.7887C14.2852 11.5151 14.8743 12.104 15.6009 12.104Z" fill="black"/>
</g>
<defs>
<clipPath id="clip0_3548_2863">
<rect width="28" height="28" fill="white"/>
</clipPath>
</defs>
</svg>
