<svg width="28" height="28" viewBox="0 0 28 28" fill="none" xmlns="http://www.w3.org/2000/svg">
<g clip-path="url(#clip0_3548_2852)">
<path d="M17.7858 13.6689C17.7141 13.6689 17.6436 13.6514 17.5802 13.6175L14.01 11.7143C14.004 11.711 13.9969 11.711 13.9914 11.7143L10.4213 13.6175C10.1921 13.74 9.90283 13.6377 9.80657 13.3872C9.77649 13.309 9.77321 13.2231 9.78689 13.1406L10.4678 9.11868C10.4689 9.11212 10.4667 9.10556 10.4623 9.10118L7.56977 6.24146C7.39804 6.07137 7.3964 5.79465 7.56649 5.62292C7.63321 5.55565 7.71962 5.5119 7.81314 5.49768L11.8071 4.90922C11.8137 4.90813 11.8192 4.9043 11.8219 4.89828L13.6064 1.22697C13.7322 1.0093 14.0106 0.935471 14.2282 1.06126C14.2971 1.10118 14.354 1.15806 14.3939 1.22697L16.1812 4.89773C16.1839 4.90375 16.1899 4.90758 16.196 4.90867L20.1899 5.49713C20.4289 5.53268 20.5941 5.75472 20.5586 5.99426C20.5449 6.08778 20.5006 6.17474 20.4333 6.24091L17.5397 9.10063C17.5353 9.10501 17.5331 9.11157 17.5342 9.11813L18.2178 13.1575C18.2583 13.396 18.0975 13.6218 17.8596 13.6617C17.835 13.6661 17.8104 13.6678 17.7858 13.6678V13.6689ZM14.0002 10.7758C14.0718 10.7758 14.1429 10.7933 14.2064 10.8272L16.9277 12.2781C17.0409 12.3388 17.1749 12.2426 17.153 12.1157L16.6329 9.04157C16.6083 8.89445 16.6565 8.7446 16.7625 8.64015L18.9736 6.4553C19.0644 6.3656 19.0136 6.21029 18.8872 6.19169L15.8295 5.74105C15.6863 5.72027 15.5627 5.62948 15.4998 5.49932L14.1396 2.70468C14.0833 2.58819 13.9176 2.58819 13.8607 2.70468L12.5006 5.49823C12.4371 5.62839 12.3141 5.71863 12.1708 5.73996L9.11311 6.1906C8.98678 6.20919 8.93591 6.36451 9.0267 6.4542L11.2438 8.64671C11.345 8.74679 11.3915 8.89008 11.3674 9.03063L10.8468 12.1151C10.8254 12.2426 10.9594 12.3388 11.0732 12.2781L13.794 10.8277C13.8574 10.7944 13.928 10.7763 14.0002 10.7763V10.7758Z" fill="black"/>
<path d="M3.35394 17.216C3.30198 17.216 3.25003 17.2067 3.20135 17.1887C3.0444 17.1301 2.93502 16.9874 2.91861 16.8206L2.64407 13.9811L0.218035 12.5827C0.00912009 12.4613 -0.0619764 12.1938 0.0588877 11.9849C0.105374 11.9045 0.17647 11.8411 0.261786 11.8039L2.79118 10.6893L3.31183 7.90126C3.35613 7.66391 3.58473 7.50695 3.82208 7.55124C3.92052 7.56929 4.00967 7.62125 4.0742 7.69672L5.91177 9.83727L8.64899 9.51296C8.88908 9.48452 9.10674 9.6557 9.13518 9.89579C9.14612 9.98931 9.12698 10.0834 9.08049 10.1649L7.68044 12.6106L8.85681 15.193C8.92408 15.3407 8.91369 15.5173 8.81579 15.6464C8.70477 15.7919 8.52703 15.8499 8.36351 15.811L5.67004 15.1788L3.65747 17.0968C3.57543 17.1744 3.46715 17.2171 3.35449 17.2165L3.35394 17.216ZM1.68317 12.1326C1.56668 12.184 1.55793 12.3453 1.6684 12.4088L3.27628 13.3358C3.39933 13.4058 3.48082 13.5316 3.49504 13.6727L3.67442 15.5244C3.687 15.653 3.84232 15.7109 3.93584 15.6218L5.23636 14.3809C5.343 14.2792 5.49449 14.2376 5.63778 14.2715L7.3873 14.6811C7.51254 14.7107 7.617 14.5832 7.56395 14.4662L6.79118 12.7664C6.73321 12.6385 6.73977 12.4903 6.80978 12.3683L7.73622 10.7495C7.79966 10.639 7.70997 10.5034 7.58364 10.5187L5.78325 10.7325C5.63832 10.7495 5.49449 10.6937 5.39933 10.5827L4.21475 9.20397C4.12998 9.10498 3.96865 9.14873 3.94459 9.2767L3.60989 11.0771C3.58363 11.2193 3.48847 11.339 3.35613 11.3976L1.68426 12.1337L1.68317 12.1326ZM13.9998 26.3568C13.7882 26.3568 13.6066 26.2048 13.5694 25.9964L11.3818 13.7459C11.3457 13.5069 11.5104 13.2844 11.7493 13.2483C11.979 13.2138 12.1956 13.3648 12.2426 13.5917L13.8472 22.5761C13.8779 22.7468 14.1218 22.7468 14.1524 22.5761L15.757 13.5917C15.8062 13.3549 16.0376 13.2034 16.2744 13.2521C16.5019 13.2991 16.6528 13.5157 16.6178 13.7454L14.4302 25.9959C14.393 26.2042 14.2115 26.3563 13.9998 26.3563V26.3568Z" fill="black"/>
<path d="M8.74974 26.3568C8.57747 26.3568 8.4216 26.2557 8.35051 26.0987L4.41285 17.3484C4.29636 17.0973 4.43801 16.7927 4.72841 16.7336C4.9242 16.6937 5.12436 16.8004 5.20749 16.9819C5.20859 16.9847 5.20968 16.9869 5.21077 16.9896L7.46727 22.0057C7.54055 22.1687 7.78666 22.0987 7.76205 21.921L7.00295 16.3525C6.97014 16.1129 7.13804 15.8925 7.37758 15.8597C7.61712 15.8269 7.83752 15.9948 7.87033 16.2343L9.18288 25.8597C9.21296 26.0757 9.07952 26.2814 8.86951 26.341C8.83013 26.3519 8.78966 26.3568 8.74919 26.3563L8.74974 26.3568ZM24.6458 17.216C24.5337 17.216 24.4254 17.1728 24.3445 17.0951L22.3319 15.1772L19.6384 15.8094C19.3721 15.8723 19.1052 15.6765 19.1003 15.3855C19.0992 15.3194 19.1167 15.2537 19.1441 15.1936L20.3215 12.609L18.9215 10.1632C18.8011 9.95377 18.8739 9.68634 19.0839 9.56602C19.1654 9.51954 19.26 9.49985 19.353 9.51133L22.0907 9.83619L23.9283 7.69564C24.0853 7.51188 24.3614 7.49055 24.5452 7.64751C24.6212 7.71259 24.6726 7.80174 24.6907 7.89963L25.2113 10.6877L27.738 11.8023C27.9595 11.8991 28.0601 12.1572 27.9628 12.3787C27.9256 12.464 27.8621 12.5351 27.7817 12.5816L25.3557 13.9817L25.0812 16.8212C25.0653 16.988 24.9554 17.1307 24.7984 17.1892C24.7492 17.2067 24.6972 17.2155 24.6453 17.2149L24.6458 17.216ZM22.4621 14.26C22.5742 14.26 22.6825 14.3032 22.7634 14.3809L24.0639 15.6218C24.1575 15.7109 24.3128 15.6535 24.3253 15.5245L24.5047 13.6727C24.5189 13.5316 24.6004 13.4058 24.7235 13.3358L26.3314 12.4088C26.4413 12.3454 26.4325 12.184 26.3166 12.1326L24.6464 11.3965C24.514 11.338 24.4189 11.2182 24.3926 11.076L24.0579 9.27562C24.0344 9.14765 23.8725 9.10444 23.7877 9.20288L22.6026 10.5827C22.5075 10.6932 22.3636 10.749 22.2187 10.7326L20.4183 10.5187C20.292 10.504 20.2023 10.639 20.2657 10.7495L21.1922 12.3683C21.2616 12.4903 21.2687 12.6385 21.2108 12.7665L20.4364 14.4662C20.3828 14.5833 20.4872 14.7107 20.613 14.6817L22.362 14.2721C22.3948 14.2644 22.4287 14.26 22.4626 14.2595L22.4621 14.26Z" fill="black"/>
<path d="M19.2504 26.3569C19.2099 26.3569 19.1689 26.3514 19.1301 26.3399C18.9201 26.2803 18.7866 26.0747 18.8167 25.8587L20.1293 16.2333C20.1621 15.9937 20.3825 15.8264 20.622 15.8587C20.8616 15.8909 21.0289 16.1119 20.9966 16.3514L20.2376 21.9199C20.2135 22.0971 20.459 22.1677 20.5323 22.0047L22.7888 16.9885C22.8916 16.7523 23.1777 16.6528 23.4074 16.7835C23.5873 16.8857 23.6704 17.1083 23.6043 17.3041C23.5993 17.3189 23.5933 17.3331 23.5868 17.3473L19.6491 26.0977C19.5791 26.2552 19.4227 26.3574 19.2499 26.3574L19.2504 26.3569Z" fill="black"/>
</g>
<defs>
<clipPath id="clip0_3548_2852">
<rect width="28" height="25.3568" fill="white" transform="translate(0 1)"/>
</clipPath>
</defs>
</svg>
