<svg width="28" height="28" viewBox="0 0 28 28" fill="none" xmlns="http://www.w3.org/2000/svg">
<path d="M17.6968 13.5555C17.6258 13.5555 17.5559 13.5382 17.493 13.5046L13.945 11.6135L10.3971 13.5046C10.1683 13.6265 9.87999 13.5235 9.78568 13.272C9.7575 13.1972 9.7537 13.1159 9.76725 13.0373L10.4448 9.03626L7.57105 6.19507C7.40086 6.0265 7.39923 5.75225 7.5678 5.58206C7.63392 5.51539 7.71956 5.47203 7.81224 5.45794L11.7808 4.87311L13.5548 1.22488C13.6794 1.00916 13.9553 0.935986 14.171 1.06065C14.2393 1.10021 14.2957 1.15658 14.3353 1.22488L16.1109 4.87257L20.0794 5.4574C20.3163 5.49263 20.48 5.71268 20.4448 5.95008C20.4312 6.04276 20.3873 6.12894 20.3206 6.19452L17.4453 9.03572L18.125 13.0493C18.1651 13.2856 18.0057 13.5094 17.77 13.549C17.7456 13.5533 17.7212 13.555 17.6968 13.555V13.5555Z" fill="#FF625D"/>
<path d="M4.45941 12.7262L3.67676 12.2753L4.49302 11.9154L4.64044 11.1273L5.15914 11.7317L6.02906 11.6287L5.58245 12.4092L5.938 13.1891L5.1315 12.9999L4.54017 13.5631L4.45941 12.7262Z" fill="#FF625D"/>
<path d="M3.7778 7.4845C3.57292 7.4845 3.39081 7.6303 3.35179 7.83897L2.8358 10.6021L0.329022 11.7067C0.244469 11.7436 0.174008 11.8064 0.127938 11.8861C0.00761264 12.0932 0.0786153 12.3588 0.285661 12.4785L2.69054 13.8644L2.96263 16.6785C2.97834 16.8438 3.08729 16.9853 3.24284 17.0433C3.29108 17.0612 3.34257 17.0704 3.39406 17.0704C3.3946 17.0704 3.39569 17.0704 3.39623 17.0704C3.50734 17.0704 3.61412 17.0281 3.69433 16.9517L5.68891 15.0509L8.35829 15.6774C8.39081 15.685 8.42441 15.6888 8.45748 15.6888C8.57672 15.6888 8.69433 15.6395 8.78105 15.5447C8.89921 15.4146 8.91926 15.2227 8.84664 15.0634L7.68132 12.5056L9.06886 10.0818C9.11493 10.001 9.13444 9.90726 9.12306 9.81512C9.09704 9.59452 8.90951 9.43301 8.69325 9.43301C8.67591 9.43301 8.65856 9.43409 8.64122 9.43626L5.92848 9.75767L4.10734 7.63626C4.04284 7.56092 3.9545 7.50997 3.85748 7.49209C3.83092 7.48721 3.80382 7.4845 3.7778 7.4845ZM16.1101 13.1338C15.909 13.1338 15.7285 13.2747 15.6862 13.4796L14.096 22.3837C14.0808 22.4682 14.013 22.5105 13.9447 22.5105C13.8764 22.5105 13.8087 22.4682 13.7935 22.3837L12.2033 13.4796C12.161 13.2758 11.9816 13.1344 11.7794 13.1344C11.7577 13.1344 11.7361 13.136 11.7144 13.1392C11.4775 13.175 11.3144 13.3956 11.3502 13.6325L13.5182 25.7734C13.555 25.9799 13.735 26.1306 13.9447 26.1306C14.1545 26.1306 14.3344 25.9799 14.3713 25.7734L16.5393 13.6325C16.5735 13.4048 16.4239 13.1902 16.1989 13.1436C16.1691 13.1376 16.1393 13.1344 16.1106 13.1344L16.1101 13.1338Z" fill="#FF625D"/>
<path d="M8.74183 26.1301C8.5711 26.1301 8.41663 26.0298 8.34617 25.8743L4.44373 17.2022C4.33316 16.9637 4.45728 16.6764 4.72123 16.6011C4.92503 16.5431 5.14454 16.6472 5.2318 16.8401C5.23289 16.8423 5.23343 16.8445 5.23451 16.8466L7.47083 21.8179C7.54346 21.9794 7.78736 21.9101 7.76297 21.7339L7.01067 16.2152C6.97815 15.9778 7.14454 15.7594 7.38194 15.7269C7.61934 15.6943 7.83777 15.8607 7.87029 16.0981L9.1711 25.6374C9.20091 25.8515 9.06866 26.0553 8.86053 26.1144C8.8215 26.1252 8.7814 26.1301 8.74129 26.1296L8.74183 26.1301ZM24.4958 17.071C24.3846 17.071 24.2773 17.0282 24.1971 16.9512L22.2025 15.0504L19.5332 15.677C19.2811 15.7361 19.0286 15.5626 19.002 15.2954C18.9939 15.2163 19.0112 15.1361 19.0443 15.0634L20.2096 12.5052L18.822 10.0813C18.7028 9.87374 18.7749 9.6087 18.983 9.48946C19.0638 9.44338 19.1575 9.42387 19.2497 9.43525L21.963 9.75721L23.7841 7.6358C23.9397 7.45368 24.2134 7.43254 24.3955 7.5881C24.4708 7.6526 24.5218 7.74095 24.5397 7.83796L25.0557 10.6011L27.5597 11.7057C27.7792 11.8017 27.879 12.0575 27.7825 12.277C27.7456 12.3615 27.6828 12.432 27.6031 12.4781L25.1987 13.8656L24.9267 16.6797C24.9109 16.845 24.802 16.9865 24.6464 17.0445C24.5977 17.0618 24.5462 17.0705 24.4947 17.0699L24.4958 17.071Z" fill="#FF625D"/>
<path d="M19.1483 26.1301C19.1082 26.1301 19.0676 26.1247 19.0291 26.1133C18.821 26.0542 18.6887 25.8504 18.7185 25.6363L20.0194 16.097C20.0519 15.8596 20.2703 15.6938 20.5077 15.7257C20.7451 15.7577 20.911 15.9767 20.879 16.2141L20.1267 21.7328C20.1028 21.9084 20.3462 21.9783 20.4188 21.8168L22.6551 16.8455C22.757 16.6114 23.0405 16.5127 23.2681 16.6423C23.4465 16.7436 23.5288 16.9642 23.4633 17.1583C23.4584 17.1729 23.4524 17.187 23.4459 17.2011L19.5435 25.8732C19.4741 26.0293 19.3191 26.1306 19.1478 26.1306L19.1483 26.1301Z" fill="#FF625D"/>
</svg>
