<svg width="28" height="28" viewBox="0 0 28 28" fill="none" xmlns="http://www.w3.org/2000/svg">
<g clip-path="url(#clip0_3548_2871)">
<path d="M27.2478 12.1789L27.2456 12.1767L15.823 0.755234C15.3363 0.267969 14.6887 0 14.0001 0C13.3116 0 12.664 0.267969 12.1772 0.755234L0.760096 12.1707C0.756267 12.1745 0.752439 12.1784 0.74861 12.1822C-0.251175 13.1879 -0.249534 14.8192 0.753533 15.8222C1.21186 16.2805 1.81676 16.5462 2.46432 16.5741C2.49058 16.5769 2.51738 16.578 2.54363 16.578H2.99867V24.9834C2.99867 26.647 4.35232 28 6.01608 28H10.485C10.9379 28 11.3054 27.633 11.3054 27.1797V20.5898C11.3054 19.8308 11.9229 19.2134 12.682 19.2134H15.3182C16.0774 19.2134 16.6949 19.8308 16.6949 20.5898V27.1797C16.6949 27.633 17.0618 28 17.5152 28H21.9842C23.648 28 25.0016 26.6465 25.0016 24.9834V16.578H25.4238C26.1124 16.578 26.7594 16.31 27.2467 15.8227C28.2509 14.8181 28.2515 13.1846 27.2478 12.1789Z" fill="#FF625D"/>
</g>
<defs>
<clipPath id="clip0_3548_2871">
<rect width="28" height="28" fill="white"/>
</clipPath>
</defs>
</svg>
