<svg width="28" height="28" viewBox="0 0 28 28" fill="none" xmlns="http://www.w3.org/2000/svg">
<g clip-path="url(#clip0_3548_2859)">
<path d="M27.2482 12.1786C27.2482 12.1786 27.2466 12.177 27.246 12.1764L15.823 0.755068C15.3364 0.267945 14.6886 0 14.0003 0C13.3121 0 12.6643 0.267945 12.1772 0.755068L0.760145 12.171C0.756309 12.1748 0.752473 12.1786 0.748637 12.1825C-0.251461 13.1879 -0.249269 14.8192 0.753569 15.8225C1.2117 16.2811 1.81669 16.5463 2.46387 16.5742C2.49018 16.577 2.51703 16.5781 2.54333 16.5781H2.99817V24.9836C2.99817 26.6471 4.35173 28.0005 6.01545 28.0005H10.4844C10.9376 28.0005 11.3047 27.6329 11.3047 27.1803V20.5907C11.3047 19.8318 11.9223 19.2142 12.6813 19.2142H15.3172C16.0762 19.2142 16.6938 19.8318 16.6938 20.5907V27.1803C16.6938 27.6334 17.0609 28.0005 17.5141 28.0005H21.983C23.6468 28.0005 25.0003 26.6471 25.0003 24.9836V16.5781H25.4223C26.1106 16.5781 26.7578 16.3101 27.2455 15.8225C28.2494 14.8181 28.25 13.1836 27.2471 12.1786H27.2482ZM26.0865 14.6625C25.9095 14.8395 25.6738 14.937 25.4239 14.937H24.1816C23.7284 14.937 23.3613 15.3041 23.3613 15.7573V24.983C23.3613 25.7419 22.7437 26.3589 21.9847 26.3589H18.3361V20.5896C18.3361 18.926 16.9826 17.5726 15.3188 17.5726H12.683C11.0192 17.5726 9.66567 18.926 9.66567 20.5896V26.3589H6.0171C5.25812 26.3589 4.64052 25.7414 4.64052 24.983V15.7573C4.64052 15.3041 4.27337 14.937 3.82017 14.937H2.59923C2.58663 14.9359 2.57402 14.9353 2.56087 14.9353C2.31646 14.931 2.0874 14.834 1.91533 14.6619C1.54981 14.2964 1.54981 13.7019 1.91533 13.3364H1.91587L13.3378 1.91507C13.5148 1.73808 13.7499 1.64055 14.0003 1.64055C14.2508 1.64055 14.4859 1.73808 14.6629 1.91507L26.0826 13.3337C26.0826 13.3337 26.0865 13.337 26.0881 13.3386C26.4514 13.7047 26.4509 14.2975 26.0865 14.6625Z" fill="black"/>
</g>
<defs>
<clipPath id="clip0_3548_2859">
<rect width="28" height="28" fill="white"/>
</clipPath>
</defs>
</svg>
