<svg width="200" height="52" viewBox="0 0 200 52" fill="none" xmlns="http://www.w3.org/2000/svg">
<path d="M22.7979 0H29.5808V50.4004H22.7979V47.3858C20.1602 49.9293 17.1455 51.2482 13.8483 51.2482C10.5511 51.2482 6.59444 49.8351 3.95666 46.9147C1.31889 43.9943 0 40.2261 0 35.7984C0 31.3707 1.31889 27.7909 3.95666 24.9647C6.50024 22.0443 9.79746 20.537 13.7541 20.537C17.7108 20.537 20.1601 21.9501 22.8921 24.6821V0H22.7979ZM6.87706 35.7984C6.87706 38.6246 7.63071 40.8855 9.13801 42.5813C10.6453 44.3712 12.6236 45.219 14.8846 45.219C17.1455 45.219 19.4065 44.3712 20.9138 42.6755C22.4211 40.8855 23.1748 38.6246 23.1748 35.8926C23.1748 33.1606 22.4211 30.8997 20.9138 29.1097C19.4065 27.414 17.4282 26.472 14.9788 26.472C12.5294 26.472 10.7395 27.3198 9.23222 29.1097C7.72492 30.8997 6.97127 33.0664 6.97127 35.7042L6.87706 35.7984Z" fill="white"/>
<path d="M41.7334 21.3848V50.4946H35.0447V21.3848H41.7334Z" fill="white"/>
<path d="M64.0603 26.2836L58.5021 29.204C57.6543 27.414 56.5238 26.472 55.2049 26.472C53.886 26.472 54.0744 26.6604 53.6034 27.0372C53.1324 27.414 52.9439 27.9793 52.9439 28.6387C52.9439 29.7692 54.2628 30.8997 56.8064 31.9359C60.3862 33.4432 62.7414 34.8563 63.9661 36.1752C65.1908 37.4941 65.8502 39.1898 65.8502 41.3566C65.8502 43.5233 64.8139 46.5379 62.7414 48.422C60.7631 50.212 58.3137 51.154 55.4875 51.154C50.5888 51.154 47.1974 48.7989 45.1248 43.9943L50.8714 41.3566C51.6251 42.7697 52.2845 43.6175 52.6613 43.9943C53.5092 44.748 54.4512 45.1248 55.5817 45.1248C57.8427 45.1248 58.9731 44.0886 58.9731 42.016C58.9731 39.9435 58.1253 39.6609 56.3354 38.7188C55.6759 38.342 55.0165 38.0593 54.2628 37.7767C53.5092 37.4941 52.9439 37.1173 52.1903 36.8347C50.212 35.8926 48.8931 34.9505 48.0452 34.0085C47.0089 32.7838 46.5379 31.2765 46.5379 29.2982C46.5379 27.3198 47.3858 24.6821 49.1757 22.9863C50.9656 21.2906 53.1324 20.537 55.5817 20.537C59.35 20.537 62.082 22.4211 63.8719 26.2836H64.0603Z" fill="white"/>
<path d="M75.8361 27.6024V50.4004H69.1474V27.6024H66.3212V21.2906H69.1474V10.6453H75.8361V21.2906H81.0174V27.6024H75.8361Z" fill="white"/>
<path d="M104.569 21.3848H111.352V50.4946H104.569V47.48C101.837 50.0236 98.8224 51.3424 95.6194 51.3424C92.4164 51.3424 88.2713 49.9293 85.6335 47.0089C82.9958 44.0886 81.6769 40.3203 81.6769 35.8926C81.6769 31.4649 82.9958 27.8851 85.6335 24.9647C88.2713 22.0443 91.4743 20.6312 95.431 20.6312C99.3877 20.6312 101.837 22.0443 104.569 24.7763V21.3848ZM88.6481 35.7984C88.6481 38.6246 89.4018 40.8855 90.9091 42.5813C92.4164 44.3712 94.3947 45.219 96.6557 45.219C98.9166 45.219 101.178 44.3712 102.685 42.6755C104.192 40.8855 104.946 38.6246 104.946 35.8926C104.946 33.1606 104.192 30.8997 102.685 29.1097C101.178 27.414 99.1992 26.472 96.7499 26.472C94.3005 26.472 92.5106 27.3198 91.0033 29.1097C89.496 30.8997 88.7423 33.0664 88.7423 35.7042L88.6481 35.7984Z" fill="white"/>
<path d="M123.504 21.3848V24.1168C125.86 21.7617 128.497 20.6312 131.418 20.6312C134.338 20.6312 137.447 21.6675 139.331 23.8342C140.933 25.6241 141.78 28.6387 141.78 32.6896V50.4946H134.998V34.2911C134.998 31.4649 134.621 29.4866 133.773 28.3561C133.019 27.2256 131.606 26.6604 129.534 26.6604C127.461 26.6604 125.765 27.414 124.823 28.8271C123.881 30.2402 123.41 32.7838 123.41 36.4578V50.4946H116.627V21.3848H123.504Z" fill="white"/>
<path d="M169.76 22.6095V31.5591C168.252 29.675 166.839 28.4503 165.615 27.6967C164.39 26.943 162.977 26.6604 161.375 26.6604C158.832 26.6604 156.759 27.5082 155.064 29.2982C153.368 31.0881 152.52 33.2548 152.52 35.9868C152.52 38.7188 153.368 40.9797 154.969 42.6755C156.571 44.4654 158.643 45.3132 161.187 45.3132C163.731 45.3132 164.202 44.9364 165.426 44.277C166.651 43.6175 168.064 42.2986 169.666 40.3203V49.1757C166.934 50.5888 164.202 51.3424 161.47 51.3424C156.948 51.3424 153.179 49.9293 150.165 47.0089C147.15 44.0886 145.643 40.4145 145.643 36.081C145.643 31.7475 147.15 28.0735 150.259 25.0589C153.368 22.0443 157.042 20.537 161.564 20.537C166.086 20.537 167.122 21.1964 169.666 22.6095H169.76Z" fill="white"/>
<path d="M199.717 37.4941H178.898C179.086 39.8493 179.84 41.8276 181.253 43.2407C182.666 44.6538 184.362 45.3132 186.528 45.3132C188.695 45.3132 189.543 44.9364 190.674 44.0886C191.71 43.3349 192.935 41.8276 194.348 39.6609L200 42.8639C199.152 44.3712 198.21 45.5959 197.268 46.7263C196.326 47.8568 195.29 48.7047 194.159 49.3641C193.029 50.0236 191.804 50.5888 190.579 50.8714C189.355 51.154 187.847 51.3424 186.34 51.3424C182.007 51.3424 178.521 49.9293 175.883 47.1974C173.245 44.3712 171.927 40.6971 171.927 35.9868C171.927 31.2765 173.245 27.6967 175.789 24.7763C178.333 21.9501 181.724 20.537 185.963 20.537C190.203 20.537 193.594 21.8559 196.138 24.5878C198.587 27.3198 199.812 31.0881 199.812 35.7984V37.3999L199.717 37.4941ZM192.84 32.0301C191.898 28.4503 189.637 26.6604 186.057 26.6604C182.478 26.6604 183.797 27.0372 183.797 27.0372C183.137 27.3198 182.383 27.6024 181.818 28.0735C181.253 28.5445 180.688 29.1097 180.311 29.7692C179.934 30.4286 179.557 31.1823 179.369 32.0301H192.84Z" fill="white"/>
<path d="M40.9797 5.46397C39.8493 5.46397 38.9072 6.0292 38.342 6.87706C37.7767 6.0292 36.8347 5.46397 35.7042 5.46397C34.0085 5.46397 32.5954 6.87706 32.5954 8.57277C32.5954 11.7758 38.342 15.8267 38.342 15.8267C38.342 15.8267 44.0886 11.7758 44.0886 8.57277C44.0886 5.36976 42.6755 5.46397 40.9797 5.46397Z" fill="#FFAC0B"/>
</svg>
