<svg width="270" height="160" viewBox="0 0 270 160" fill="none" xmlns="http://www.w3.org/2000/svg">
<g filter="url(#filter0_b_4082_3900)">
<rect width="270" height="160" rx="14" fill="#F1F1F1"/>
<path d="M22.3922 28.6289L23.7867 23.9805H25.3639L24.5006 28.6289H22.3922ZM29.9609 36.166C27.8359 36.166 26.2422 34.4727 26.2422 31.501C26.2422 28.4961 27.8857 26.8691 29.9775 26.8691C31.5713 26.8691 32.2354 27.8154 32.5508 28.4629H32.6338V23.9805H34.7422V36H32.667V34.5723H32.5508C32.2188 35.2363 31.5215 36.166 29.9609 36.166ZM30.542 34.4229C31.9033 34.4229 32.6836 33.2441 32.6836 31.4844C32.6836 29.7412 31.9199 28.5957 30.542 28.5957C29.1309 28.5957 28.4004 29.8076 28.4004 31.4844C28.4004 33.1943 29.1475 34.4229 30.542 34.4229ZM36.4838 36V26.9854H38.6088V36H36.4838ZM37.5629 25.707C36.8988 25.707 36.3344 25.1924 36.3344 24.5449C36.3344 23.9141 36.8988 23.3994 37.5629 23.3994C38.2436 23.3994 38.7914 23.9141 38.7914 24.5449C38.7914 25.1924 38.2436 25.707 37.5629 25.707ZM45.3475 29.5586C45.2146 28.8779 44.6502 28.4463 43.7537 28.4463C42.8406 28.4463 42.1766 28.8945 42.1932 29.5088C42.1766 29.9736 42.5584 30.3223 43.4715 30.5381L44.9988 30.8535C46.7088 31.2354 47.5223 32.0156 47.5389 33.3105C47.5223 35.0039 46.0447 36.1826 43.6873 36.1826C41.3963 36.1826 40.035 35.1533 39.8191 33.4268H41.9773C42.1102 34.1904 42.7078 34.5723 43.6873 34.5723C44.7 34.5723 45.3807 34.1572 45.3807 33.4932C45.3807 32.9785 44.9656 32.6465 44.0691 32.4473L42.6248 32.1318C40.948 31.7998 40.0848 30.9199 40.0848 29.625C40.0848 27.9648 41.5125 26.8691 43.7205 26.8691C45.8787 26.8691 47.2068 27.915 47.3563 29.5586H45.3475ZM53.2482 26.9854V28.6123H51.4719V33.2939C51.4719 34.1572 51.9035 34.3398 52.4348 34.3398C52.6838 34.3398 53.0988 34.3232 53.3645 34.3066V36.0332C53.1154 36.083 52.7004 36.1162 52.1691 36.1162C50.5754 36.1162 49.3469 35.3359 49.3635 33.6426V28.6123H48.0686V26.9854H49.3635V24.8271H51.4719V26.9854H53.2482ZM54.0602 33.46C54.0602 31.4346 55.7369 30.8369 57.4137 30.7373C58.0362 30.6958 59.3312 30.6211 59.7213 30.6045V29.8906C59.7213 28.9941 59.1402 28.4795 58.0943 28.4795C57.148 28.4795 56.567 28.9111 56.401 29.5586H54.359C54.5084 28.0312 55.8863 26.8691 58.1441 26.8691C59.8541 26.8691 61.8297 27.5664 61.8297 29.9736V36H59.8043V34.7549H59.7379C59.3395 35.5186 58.4928 36.1826 57.0816 36.1826C55.3551 36.1826 54.0602 35.2363 54.0602 33.46ZM56.1021 33.4434C56.1021 34.2236 56.733 34.6221 57.6295 34.6221C58.9078 34.6221 59.7379 33.7754 59.7379 32.7627V32.0156C59.3478 32.0405 58.169 32.1235 57.7457 32.1484C56.733 32.2314 56.1021 32.6465 56.1021 33.4434ZM65.5469 30.7207V36H63.4219V26.9854H65.4473V28.5127H65.5635C65.9785 27.5 66.8916 26.8691 68.2363 26.8691C70.1123 26.8691 71.3408 28.0977 71.3242 30.2559V36H69.2158V30.5879C69.2158 29.376 68.5684 28.6621 67.4561 28.6621C66.3271 28.6621 65.5469 29.4092 65.5469 30.7207ZM76.8842 36.1826C74.1947 36.1826 72.5678 34.2568 72.5678 31.5342C72.5678 28.7783 74.2445 26.8691 76.8842 26.8691C79.0756 26.8691 80.6029 28.1475 80.7523 30.0898H78.727C78.5609 29.2266 77.9301 28.5625 76.9008 28.5625C75.5893 28.5625 74.7094 29.6748 74.7094 31.4844C74.7094 33.3438 75.5727 34.4561 76.9008 34.4561C77.8471 34.4561 78.5443 33.9082 78.727 32.9287H80.7523C80.5863 34.8379 79.142 36.1826 76.8842 36.1826ZM85.9471 36.1826C83.2244 36.1826 81.5643 34.373 81.5643 31.5508C81.5643 28.7617 83.2576 26.8691 85.8309 26.8691C88.0389 26.8691 89.948 28.2471 89.948 31.418V32.082H83.6561C83.681 33.6177 84.5857 34.5225 85.9637 34.5225C86.8934 34.5225 87.5242 34.124 87.7898 33.5928H89.865C89.4832 35.1533 88.0389 36.1826 85.9471 36.1826ZM83.6727 30.6377H87.9227C87.9061 29.4092 87.0926 28.5127 85.8641 28.5127C84.5857 28.5127 83.7391 29.4839 83.6727 30.6377ZM93.7814 23.9971L92.3869 28.6455H90.8098L91.673 23.9971H93.7814ZM107.46 22.4697V37.4775H105.683V22.4697H107.46ZM104.372 22.7354V36.7471H102.612V29.6084H101.184C101.01 32.5303 99.7564 34.3398 97.8971 34.3232C95.9381 34.3398 94.6598 32.2646 94.6598 28.9609C94.6598 25.6572 95.9381 23.6152 97.8971 23.6152C99.7149 23.6152 100.952 25.3086 101.168 28.1143H102.612V22.7354H104.372ZM97.8971 25.3584C96.9508 25.3418 96.3531 26.6201 96.3697 28.9609C96.3531 31.3018 96.9508 32.5801 97.8971 32.5635C98.8932 32.5801 99.4908 31.3018 99.4908 28.9609C99.4908 26.6201 98.8932 25.3418 97.8971 25.3584ZM114.348 26.0723C114.348 28.8613 115.676 31.6006 118.066 32.6465L116.954 34.124C115.252 33.2939 114.057 31.7002 113.418 29.7412C112.762 31.8081 111.542 33.5264 109.815 34.4062L108.653 32.9121C111.094 31.7666 112.455 28.8779 112.472 26.0723V23.6816H114.348V26.0723ZM121.387 22.4697V37.4941H119.561V28.8115H116.406V27.3174H119.561V22.4697H121.387ZM138.566 22.4697V25.4912H140.658V27.0186H138.566V30.0068H136.723V22.4697H138.566ZM138.566 30.6543V34.5889H130.597V35.834H139.031V37.2949H128.771V33.2441H136.723V32.082H128.755V30.6543H138.566ZM130.88 22.9678C133.171 22.9678 134.847 24.3457 134.864 26.3379C134.847 28.2969 133.171 29.6914 130.88 29.6914C128.589 29.6914 126.879 28.2969 126.895 26.3379C126.879 24.3457 128.589 22.9678 130.88 22.9678ZM130.88 24.4619C129.618 24.4619 128.688 25.1924 128.705 26.3379C128.688 27.4668 129.618 28.2305 130.88 28.2305C132.141 28.2305 133.071 27.4668 133.071 26.3379C133.071 25.1924 132.141 24.4619 130.88 24.4619ZM153.523 22.4863V31.3848H151.663V22.4863H153.523ZM148.708 23.3662V27.7158H143.628V29.2764C146.201 29.2681 148.019 29.2017 150.169 28.8447L150.402 30.3389C148.028 30.7207 146.002 30.7871 143.097 30.7871H141.819V26.3047H146.882V24.8271H141.785V23.3662H148.708ZM153.523 32.082V37.2949H143.562V32.082H153.523ZM145.388 33.5596V35.8008H151.713V33.5596H145.388ZM162.137 22.7021C165.557 22.7021 167.533 23.6152 167.549 25.2754C167.533 26.9521 165.557 27.8486 162.137 27.8652C158.717 27.8486 156.725 26.9521 156.725 25.2754C156.725 23.6152 158.717 22.7021 162.137 22.7021ZM162.137 24.0635C159.846 24.0635 158.651 24.4951 158.668 25.2754C158.651 26.1055 159.846 26.4873 162.137 26.4873C164.462 26.4873 165.64 26.1055 165.64 25.2754C165.64 24.4951 164.462 24.0635 162.137 24.0635ZM168.994 28.6621V30.1396H155.314V28.6621H168.994ZM167.284 31.1523V34.8213H158.751V35.9336H167.699V37.3447H156.941V33.5098H165.474V32.5137H156.924V31.1523H167.284ZM186.954 34.1572V35.668H173.241V34.1572H179.151V31.2354H174.751V23.4658H176.594V25.9229H183.55V23.4658H185.393V31.2354H180.977V34.1572H186.954ZM176.594 29.7412H183.55V27.4004H176.594V29.7412ZM200.416 22.4697V37.4775H198.639V29.8906H196.979V36.7139H195.253V22.752H196.979V28.3799H198.639V22.4697H200.416ZM190.04 24.1963V32.1152C191.335 32.0903 192.754 31.9824 194.323 31.667L194.506 33.2773C192.48 33.6426 190.77 33.7422 189.177 33.7422H188.18V24.1963H190.04ZM214.077 23.8477V25.292C214.061 27.1514 214.061 29.2432 213.48 32.3809L211.62 32.1816C212.201 29.2598 212.201 27.1265 212.218 25.3252H203.253V23.8477H214.077ZM215.505 34.0244V35.5352H201.825V34.0244H206.872V28.8115H208.698V34.0244H215.505ZM221.497 26.7363C221.497 29.0605 222.875 31.7002 225.249 32.7959L224.219 34.2568C222.526 33.46 221.273 31.8496 220.6 29.9736C219.92 32.0322 218.608 33.792 216.881 34.6221L215.802 33.1777C218.193 32.0488 219.637 29.2266 219.654 26.7363V25.4746H216.383V23.9473H224.634V25.4746H221.497V26.7363ZM227.872 22.4697V28.3135H230.179V29.8574H227.872V37.4775H226.029V22.4697H227.872ZM245.881 22.4697V26.1719H247.973V27.6992H245.881V31.2354H244.038V22.4697H245.881ZM238.012 31.833V33.1279H244.038V31.833H245.881V37.2949H236.186V31.833H238.012ZM238.012 35.834H244.038V34.5557H238.012V35.834ZM242.959 23.8643V25.3418H234.061V23.8643H237.597V22.3535H239.44V23.8643H242.959ZM238.51 25.8564C240.685 25.8564 242.163 26.9023 242.179 28.4961C242.163 30.0898 240.685 31.1357 238.51 31.1357C236.319 31.1357 234.825 30.0898 234.825 28.4961C234.825 26.9023 236.319 25.8564 238.51 25.8564ZM238.51 27.2178C237.365 27.2178 236.618 27.6992 236.618 28.4961C236.618 29.3096 237.365 29.7744 238.51 29.7744C239.656 29.7744 240.419 29.3096 240.419 28.4961C240.419 27.6992 239.656 27.2178 238.51 27.2178ZM131.407 44.4697V59.4775H129.581V44.4697H131.407ZM121.579 45.9307V54.1318C123.688 54.0986 125.929 53.9077 128.236 53.4512L128.469 54.9951C125.829 55.543 123.372 55.709 121.048 55.709H119.753V45.9307H121.579ZM144.936 44.4697V50.1641H147.244V51.6748H144.936V59.4941H143.093V44.4697H144.936ZM140.819 45.8975V47.3916H135.639V54.2812C137.972 54.2812 139.814 54.165 141.881 53.7998L142.097 55.3604C139.773 55.7588 137.748 55.8252 135.042 55.8252H133.796V45.8975H140.819ZM149.301 58.1328C148.587 58.1328 148.006 57.5518 148.006 56.8379C148.006 56.1406 148.587 55.5596 149.301 55.5596C149.981 55.5596 150.579 56.1406 150.579 56.8379C150.579 57.5518 149.981 58.1328 149.301 58.1328Z" fill="black"/>
<path d="M30.3951 66.7549V73.5342H29.3922V72.0107H26.3961V71.1855H29.3922V69.6621H26.5104C25.7677 71.4775 24.0221 72.7915 21.61 73.5088L21.191 72.7217C23.9205 71.9092 25.6153 70.3857 25.8248 68.4307H21.7623V67.5928H26.9039C26.9039 68.0371 26.8531 68.4624 26.7643 68.8623H29.3922V66.7549H30.3951ZM26.7008 73.6484C28.9859 73.6484 30.4586 74.4609 30.4586 75.8066C30.4586 77.165 28.9859 77.9775 26.7008 77.9775C24.3902 77.9775 22.9303 77.165 22.9303 75.8066C22.9303 74.4609 24.3902 73.6484 26.7008 73.6484ZM26.7008 74.4482C24.9996 74.4355 23.9078 74.9561 23.9078 75.8066C23.9078 76.6572 24.9996 77.165 26.7008 77.165C28.3766 77.165 29.4557 76.6572 29.4684 75.8066C29.4557 74.9561 28.3766 74.4355 26.7008 74.4482ZM40.9258 67.8848V69.0146C40.9131 70.3984 40.9131 71.9473 40.5068 74.2197L39.4912 74.1055C39.9229 71.9473 39.9229 70.3604 39.9229 69.0146V68.71H32.9658V67.8848H40.9258ZM42.1572 75.6035V76.4287H31.874V75.6035H35.9111V71.5664H36.8887V75.6035H42.1572ZM44.5629 76.1494L43.5727 79.6025H42.6332L43.3314 76.1494H44.5629ZM52.2814 69.7764C52.2814 71.7695 53.6018 73.8135 55.2014 74.6006L54.592 75.4004C53.3479 74.7466 52.3068 73.4136 51.8117 71.8457C51.3039 73.5151 50.2375 74.937 48.968 75.6162L48.3332 74.8164C49.9836 74.0039 51.2912 71.833 51.3039 69.7764V67.7197H52.2814V69.7764ZM57.2326 66.7422V71.3252H59.1242V72.1885H57.2326V78.0283H56.2424V66.7422H57.2326ZM69.6549 72.4805V73.3057H65.0719V75.6162H64.0689V73.3057H59.3209V72.4805H69.6549ZM68.4996 76.9365V77.7871H60.6539V74.4863H61.6568V76.9365H68.4996ZM64.4752 67.0342C66.8873 67.0469 68.4488 67.9102 68.4488 69.3066C68.4488 70.7031 66.8873 71.5537 64.4752 71.5537C62.0631 71.5537 60.4889 70.7031 60.4889 69.3066C60.4889 67.9102 62.0631 67.0469 64.4752 67.0342ZM64.4752 67.8467C62.7232 67.8467 61.5426 68.4053 61.5553 69.3066C61.5426 70.1826 62.7232 70.7412 64.4752 70.7412C66.2271 70.7412 67.3951 70.1826 67.3951 69.3066C67.3951 68.4053 66.2271 67.8467 64.4752 67.8467ZM79.2842 72.1758V73.001H71.4893V67.7959H79.1699V68.6211H72.4795V72.1758H79.2842ZM80.5029 75.6543V76.4922H70.1689V75.6543H80.5029ZM89.7576 67.4785V72.0742H84.4637V67.4785H89.7576ZM85.4412 68.291V71.2871H88.7801V68.291H85.4412ZM93.1727 66.7422V73.2295H92.1951V66.7422H93.1727ZM90.1131 74.7783C90.1131 75.8828 91.9158 76.9746 93.8582 77.2158L93.5154 77.9902C91.8143 77.7617 90.2654 76.9619 89.6053 75.9082C88.9197 76.981 87.3328 77.7617 85.6316 77.9902L85.2762 77.2158C87.2186 77 89.0848 75.9082 89.0848 74.7783H85.7459V74.0039H89.0975V72.8994H90.0877V74.0039H93.4646V74.7783H90.1131ZM100.587 67.6182C102.25 67.6309 103.43 69.1543 103.443 71.5537C103.43 73.9531 102.25 75.4766 100.587 75.4766C98.9107 75.4766 97.7428 73.9531 97.7428 71.5537C97.7428 69.1543 98.9107 67.6309 100.587 67.6182ZM100.587 68.5068C99.4693 68.5195 98.6822 69.7129 98.6822 71.5537C98.6822 73.3945 99.4693 74.5879 100.587 74.5879C101.716 74.5879 102.478 73.3945 102.478 71.5537C102.478 69.7129 101.716 68.5195 100.587 68.5068ZM106.299 66.7422V71.249H108.191V72.1123H106.299V78.0283H105.309V66.7422H106.299ZM117.706 66.7422V78.0537H116.703V66.7422H117.706ZM111.701 67.6182C113.377 67.6309 114.583 69.1543 114.583 71.5537C114.583 73.9531 113.377 75.4766 111.701 75.4766C110.013 75.4766 108.819 73.9531 108.819 71.5537C108.819 69.1543 110.013 67.6309 111.701 67.6182ZM111.701 68.5068C110.571 68.5195 109.784 69.7129 109.784 71.5537C109.784 73.3945 110.571 74.5879 111.701 74.5879C112.831 74.5879 113.618 73.3945 113.618 71.5537C113.618 69.7129 112.831 68.5195 111.701 68.5068ZM128.237 67.3008V68.2402C128.237 69.2939 128.237 70.4365 127.932 71.9854L126.942 71.8965C127.081 71.2363 127.158 70.646 127.208 70.1064L120.328 70.4365L120.188 69.5859L127.246 69.3574C127.259 68.9639 127.259 68.5957 127.259 68.2402V68.1133H120.467V67.3008H128.237ZM129.519 72.7471V73.5596H119.248V72.7471H123.438V71.084H124.441V72.7471H129.519ZM128.503 77.0381V77.8506H120.556V74.5244H121.559V77.0381H128.503ZM134.305 67.8213V70.5762H136.755V67.8213H137.682V75.21H133.353V67.8213H134.305ZM134.305 74.3848H136.755V71.3887H134.305V74.3848ZM142.608 66.7422V78.0283H141.643V72.0488H140.069V77.457H139.116V66.9834H140.069V71.2236H141.643V66.7422H142.608ZM147.806 70.208C147.806 72.125 149.203 74.0674 150.866 74.791L150.307 75.5781C148.987 74.9751 147.844 73.6738 147.324 72.1123C146.791 73.769 145.654 75.21 144.366 75.8574L143.769 75.0703C145.381 74.2959 146.791 72.1631 146.803 70.208V68.7354H144.137V67.9102H150.498V68.7354H147.806V70.208ZM153.075 66.7422V78.0283H152.072V66.7422H153.075ZM163.339 66.7422V71.3379H165.167V72.1758H163.339V78.0283H162.349V66.7422H163.339ZM160.419 67.9609C160.419 71.1602 158.921 74.0674 155.239 75.8828L154.681 75.0957C157.601 73.6421 159.188 71.4712 159.416 68.7988H155.201V67.9609H160.419ZM177.126 66.7422V69.1924H178.827V70.0303H177.126V72.4932H176.136V66.7422H177.126ZM177.126 73.0264V75.7812H170.93V77.0762H177.545V77.876H169.953V75.0195H176.136V73.8262H169.928V73.0264H177.126ZM171.451 67.1611C173.152 67.1738 174.384 68.1895 174.384 69.6621C174.384 71.1475 173.152 72.1758 171.451 72.1758C169.763 72.1758 168.506 71.1475 168.518 69.6621C168.506 68.1895 169.763 67.1738 171.451 67.1611ZM171.451 67.999C170.321 67.9863 169.483 68.6846 169.496 69.6621C169.483 70.6523 170.321 71.3633 171.451 71.3633C172.581 71.3633 173.406 70.6523 173.406 69.6621C173.406 68.6846 172.581 67.9863 171.451 67.999ZM188.456 66.7549V73.4453H187.466V66.7549H188.456ZM184.863 67.4404V70.5H180.699V72.0615C182.718 72.0742 184.229 72.0107 186.057 71.7061L186.171 72.5439C184.279 72.8359 182.731 72.8994 180.649 72.8994H179.735V69.7129H183.873V68.2402H179.709V67.4404H184.863ZM188.456 74.0547V77.876H181.118V74.0547H188.456ZM182.096 74.8672V77.0635H187.479V74.8672H182.096ZM199.647 66.7422V78.0283H198.682V66.7422H199.647ZM197.375 66.9834V77.457H196.422V71.9727H194.975C194.867 74.1689 193.934 75.54 192.538 75.54C191.065 75.54 190.113 74.0166 190.113 71.6172C190.113 69.2178 191.065 67.6943 192.538 67.6943C193.909 67.6943 194.836 69.021 194.962 71.1475H196.422V66.9834H197.375ZM192.538 68.6338C191.624 68.6338 191.04 69.7764 191.052 71.6172C191.04 73.4453 191.624 74.6006 192.538 74.5879C193.452 74.6006 194.036 73.4453 194.036 71.6172C194.036 69.7764 193.452 68.6338 192.538 68.6338ZM214.005 75.7812V76.6318H203.671V75.7812H208.305V73.1787H204.611V72.3789H206.375V68.6719H204.585V67.8467H213.015V68.6719H211.225V72.3789H212.99V73.1787H209.283V75.7812H214.005ZM207.366 72.3789H210.247V68.6719H207.366V72.3789ZM223.33 66.7422V69.751H225.031V70.6016H223.33V73.5469H222.34V66.7422H223.33ZM223.33 74.1943V77.876H216.208V74.1943H223.33ZM217.185 74.9941V77.0635H222.34V74.9941H217.185ZM221.261 67.9482V68.7734H214.532V67.9482H217.401V66.6533H218.391V67.9482H221.261ZM217.896 69.332C219.521 69.332 220.6 70.1318 220.613 71.3379C220.6 72.5693 219.521 73.3564 217.896 73.3564C216.259 73.3564 215.167 72.5693 215.18 71.3379C215.167 70.1318 216.259 69.332 217.896 69.332ZM217.896 70.1064C216.83 70.1064 216.119 70.6016 216.132 71.3379C216.119 72.1123 216.83 72.582 217.896 72.5947C218.95 72.582 219.661 72.1123 219.674 71.3379C219.661 70.6016 218.95 70.1064 217.896 70.1064ZM231.905 69.7256V70.5127H229.633V71.6553C230.699 71.6108 231.772 71.5347 232.769 71.4141L232.82 72.1123C230.407 72.4805 227.691 72.5566 225.545 72.5566L225.405 71.7568C226.402 71.7505 227.5 71.7378 228.63 71.6934V70.5127H226.446V67.2373H231.779V68.0117H227.475V69.7256H231.905ZM234.66 66.7549V72.8359H233.67V66.7549H234.66ZM234.66 73.3438V75.959H228.186V77.0889H235.067V77.9014H227.195V75.1973H233.683V74.1436H227.17V73.3438H234.66ZM244.702 67.7959C244.702 69.3828 246.784 70.7666 248.815 71.0459L248.409 71.8584C246.657 71.5664 244.924 70.5952 244.194 69.2051C243.471 70.6016 241.731 71.5664 239.979 71.8584L239.573 71.0459C241.604 70.7666 243.674 69.4082 243.674 67.7959V67.1484H244.702V67.7959ZM249.323 73.1025V73.9404H244.651V78.0283H243.674V73.9404H239.04V73.1025H249.323ZM31.5153 92.3213C31.5153 93.3179 32.0485 94.3779 33.1276 94.9873C34.194 94.3208 34.7653 93.1973 34.7653 92.3213V91.6992H35.7429V92.3213C35.7429 93.4766 36.5935 94.6445 38.0407 95.1396L37.5456 95.876C36.4157 95.4761 35.6223 94.689 35.2351 93.7432C34.8859 94.6572 34.194 95.5205 33.153 95.9648C32.0549 95.5459 31.3566 94.7144 31.0202 93.7686C30.6203 94.6826 29.8396 95.4697 28.7605 95.876L28.2526 95.1396C29.6745 94.6064 30.5378 93.4004 30.5505 92.3213V91.6992H31.5153V92.3213ZM37.0124 84.7549V91.2041H36.0222V84.7549H37.0124ZM30.9187 85.415C32.6325 85.415 33.8767 86.4814 33.8767 88.0557C33.8767 89.6045 32.6325 90.6709 30.9187 90.6709C29.2048 90.6709 27.9606 89.6045 27.9606 88.0557C27.9606 86.4814 29.2048 85.415 30.9187 85.415ZM30.9187 86.2656C29.7634 86.2529 28.9255 87.002 28.9382 88.0557C28.9255 89.0967 29.7634 89.833 30.9187 89.8457C32.0612 89.833 32.8991 89.0967 32.8991 88.0557C32.8991 87.002 32.0612 86.2529 30.9187 86.2656ZM40.8272 91.5215V92.8418H46.464V91.5215H47.4669V95.876H39.837V91.5215H40.8272ZM40.8272 95.0762H46.464V93.6289H40.8272V95.0762ZM48.8126 89.8965V90.7217H38.5294V89.8965H48.8126ZM44.1915 85.4023C44.1915 86.7988 46.2481 88.043 48.2286 88.2969L47.8605 89.0967C46.1085 88.8364 44.3946 87.9414 43.6837 86.6719C42.9601 87.9478 41.2335 88.8364 39.4942 89.0967L39.1134 88.2969C41.1192 88.0303 43.1632 86.8369 43.1632 85.4023V84.8691H44.1915V85.4023ZM58.6704 84.7422V96.0283H57.6802V84.7422H58.6704ZM51.0786 85.8594V92.2578C52.7988 92.2515 54.5825 92.1118 56.4741 91.7119L56.6138 92.5625C54.6079 92.9814 52.8179 93.1211 51.0151 93.1211H50.1011V85.8594H51.0786ZM68.9345 84.7422V89.2109H70.8261V90.0488H68.9345V96.0537H67.9442V84.7422H68.9345ZM65.9638 85.8467V86.6719H61.6855V92.3848C63.7294 92.3848 65.1767 92.2896 66.8524 91.9785L66.9794 92.8418C65.2147 93.1592 63.7294 93.2227 61.5839 93.2227H60.6952V85.8467H65.9638ZM72.2288 95.0762C71.7845 95.0762 71.4036 94.708 71.4163 94.251C71.4036 93.8066 71.7845 93.4385 72.2288 93.4385C72.6731 93.4385 73.0413 93.8066 73.0413 94.251C73.0413 94.708 72.6731 95.0762 72.2288 95.0762ZM86.13 84.7422V90.582H85.1271V87.6494H82.6134V86.8242H85.1271V84.7422H86.13ZM86.13 91.1533V93.8447H79.8204V95.0762H86.5489V95.876H78.8429V93.083H85.1397V91.9531H78.8175V91.1533H86.13ZM80.6202 86.1768C80.6075 87.6621 81.7755 89.0078 83.4259 89.5537L82.8927 90.3281C81.6422 89.8838 80.6456 88.9951 80.1505 87.8525C79.6681 89.1411 78.6461 90.125 77.3067 90.6074L76.7608 89.8076C78.462 89.249 79.63 87.8271 79.6427 86.1768V85.1104H80.6202V86.1768ZM96.9653 84.7422V91.4707H95.9624V88.5127H93.6899V87.6875H95.9624V84.7422H96.9653ZM93.2202 91.8262C95.5688 91.8262 97.0034 92.5879 97.0034 93.9209C97.0034 95.2539 95.5688 96.0156 93.2202 96.0283C90.8716 96.0156 89.437 95.2539 89.437 93.9209C89.437 92.5879 90.8716 91.8262 93.2202 91.8262ZM93.2202 92.6006C91.4937 92.6006 90.4146 93.0957 90.4272 93.9209C90.4146 94.7334 91.4937 95.2285 93.2202 95.2285C94.9468 95.2285 96.0132 94.7334 96.0132 93.9209C96.0132 93.0957 94.9468 92.6006 93.2202 92.6006ZM91.5317 86.8115C91.5317 88.2842 92.6616 89.6807 94.312 90.252L93.7915 91.0518C92.522 90.5947 91.5381 89.6489 91.062 88.4746C90.5669 89.8013 89.5195 90.8613 88.1802 91.3691L87.6597 90.5693C89.3354 89.96 90.5288 88.4365 90.5288 86.8242V86.4053H87.9771V85.5674H94.0581V86.4053H91.5317V86.8115ZM108.118 84.7422V96.0283H107.153V84.7422H108.118ZM105.846 84.9834V95.457H104.893V89.9727H103.446C103.338 92.1689 102.405 93.54 101.009 93.54C99.536 93.54 98.5839 92.0166 98.5839 89.6172C98.5839 87.2178 99.536 85.6943 101.009 85.6943C102.38 85.6943 103.307 87.021 103.434 89.1475H104.893V84.9834H105.846ZM101.009 86.6338C100.095 86.6338 99.5107 87.7764 99.5233 89.6172C99.5107 91.4453 100.095 92.6006 101.009 92.5879C101.923 92.6006 102.507 91.4453 102.507 89.6172C102.507 87.7764 101.923 86.6338 101.009 86.6338ZM113.253 87.7764C113.253 89.8203 114.561 91.877 116.199 92.626L115.602 93.4385C114.32 92.7783 113.26 91.4263 112.758 89.8203C112.257 91.5088 111.197 92.9561 109.914 93.6416L109.267 92.8418C110.917 92.0293 112.238 89.8584 112.238 87.7764V85.7197H113.253V87.7764ZM118.636 84.7422V96.0537H117.646V89.4141H114.967V88.6016H117.646V84.7422H118.636ZM132.283 84.7422V96.0537H131.28V84.7422H132.283ZM126.278 85.6182C127.954 85.6309 129.16 87.1543 129.16 89.5537C129.16 91.9531 127.954 93.4766 126.278 93.4766C124.59 93.4766 123.397 91.9531 123.397 89.5537C123.397 87.1543 124.59 85.6309 126.278 85.6182ZM126.278 86.5068C125.149 86.5195 124.361 87.7129 124.361 89.5537C124.361 91.3945 125.149 92.5879 126.278 92.5879C127.408 92.5879 128.195 91.3945 128.195 89.5537C128.195 87.7129 127.408 86.5195 126.278 86.5068ZM144.134 89.9854V90.7725H133.8V89.9854H144.134ZM142.839 91.6738V94.0732H136.06V95.1523H143.208V95.876H135.057V93.3877H141.849V92.4229H135.044V91.6738H142.839ZM142.801 85.085V87.4209H136.136V88.4111H143.004V89.1348H135.146V86.7354H141.798V85.8086H135.108V85.085H142.801ZM156.436 85.4785V86.4688C156.436 87.5415 156.436 88.7031 156.118 90.3281H157.794V91.1533H153.135V96.0537H152.132V91.1533H147.511V90.3281H155.103C155.446 88.7031 155.446 87.5161 155.446 86.4688V86.3037H148.806V85.4785H156.436ZM162.231 86.5195C162.218 88.1318 163.361 89.5537 165.024 90.1123L164.466 90.8867C163.221 90.417 162.244 89.5029 161.761 88.3096C161.273 89.6616 160.238 90.7153 158.88 91.2295L158.334 90.417C160.073 89.8076 161.228 88.3096 161.241 86.5576V85.3896H162.231V86.5195ZM167.703 84.7422V91.4326H166.7V87.9922H164.186V87.167H166.7V84.7422H167.703ZM163.958 91.7627C166.306 91.7627 167.741 92.5371 167.741 93.8955C167.741 95.2412 166.306 96.0029 163.958 96.0029C161.609 96.0029 160.175 95.2412 160.175 93.8955C160.175 92.5371 161.609 91.7627 163.958 91.7627ZM163.958 92.5498C162.231 92.5498 161.152 93.0576 161.165 93.8955C161.152 94.708 162.231 95.2031 163.958 95.2031C165.684 95.2031 166.751 94.708 166.751 93.8955C166.751 93.0576 165.684 92.5498 163.958 92.5498ZM178.005 84.7041V87.4463H179.719V88.2715H178.005V90.9502H177.015V84.7041H178.005ZM178.005 91.5342V94.0352H171.81V95.1396H178.424V95.9014H170.832V93.2988H177.015V92.2832H170.807V91.5342H178.005ZM175.936 85.7705V86.5703H169.207V85.7705H172.076V84.6279H173.067V85.7705H175.936ZM172.571 87.0781C174.209 87.0781 175.275 87.7891 175.288 88.9316C175.275 90.0742 174.209 90.7852 172.571 90.7852C170.921 90.7852 169.842 90.0742 169.855 88.9316C169.842 87.7891 170.921 87.0781 172.571 87.0781ZM172.571 87.8145C171.505 87.8145 170.794 88.2588 170.807 88.9316C170.794 89.6172 171.505 90.0361 172.571 90.0361C173.638 90.0361 174.336 89.6172 174.349 88.9316C174.336 88.2588 173.638 87.8145 172.571 87.8145ZM188.542 85.7959C188.542 87.3828 190.624 88.7666 192.655 89.0459L192.249 89.8584C190.497 89.5664 188.764 88.5952 188.034 87.2051C187.31 88.6016 185.571 89.5664 183.819 89.8584L183.413 89.0459C185.444 88.7666 187.514 87.4082 187.514 85.7959V85.1484H188.542V85.7959ZM193.163 91.1025V91.9404H188.491V96.0283H187.514V91.9404H182.88V91.1025H193.163ZM200.399 92.3213C200.399 93.3179 200.932 94.3779 202.011 94.9873C203.078 94.3208 203.649 93.1973 203.649 92.3213V91.6992H204.627V92.3213C204.627 93.4766 205.477 94.6445 206.925 95.1396L206.429 95.876C205.3 95.4761 204.506 94.689 204.119 93.7432C203.77 94.6572 203.078 95.5205 202.037 95.9648C200.939 95.5459 200.24 94.7144 199.904 93.7686C199.504 94.6826 198.723 95.4697 197.644 95.876L197.136 95.1396C198.558 94.6064 199.422 93.4004 199.434 92.3213V91.6992H200.399V92.3213ZM205.896 84.7549V91.2041H204.906V84.7549H205.896ZM199.802 85.415C201.516 85.415 202.76 86.4814 202.76 88.0557C202.76 89.6045 201.516 90.6709 199.802 90.6709C198.089 90.6709 196.844 89.6045 196.844 88.0557C196.844 86.4814 198.089 85.415 199.802 85.415ZM199.802 86.2656C198.647 86.2529 197.809 87.002 197.822 88.0557C197.809 89.0967 198.647 89.833 199.802 89.8457C200.945 89.833 201.783 89.0967 201.783 88.0557C201.783 87.002 200.945 86.2529 199.802 86.2656ZM209.711 91.5215V92.8418H215.348V91.5215H216.351V95.876H208.721V91.5215H209.711ZM209.711 95.0762H215.348V93.6289H209.711V95.0762ZM217.696 89.8965V90.7217H207.413V89.8965H217.696ZM213.075 85.4023C213.075 86.7988 215.132 88.043 217.112 88.2969L216.744 89.0967C214.992 88.8364 213.278 87.9414 212.567 86.6719C211.844 87.9478 210.117 88.8364 208.378 89.0967L207.997 88.2969C210.003 88.0303 212.047 86.8369 212.047 85.4023V84.8691H213.075V85.4023ZM227.554 84.7422V96.0283H226.564V84.7422H227.554ZM219.962 85.8594V92.2578C221.683 92.2515 223.466 92.1118 225.358 91.7119L225.498 92.5625C223.492 92.9814 221.702 93.1211 219.899 93.1211H218.985V85.8594H219.962ZM237.818 84.7422V89.2109H239.71V90.0488H237.818V96.0537H236.828V84.7422H237.818ZM234.848 85.8467V86.6719H230.569V92.3848C232.613 92.3848 234.06 92.2896 235.736 91.9785L235.863 92.8418C234.099 93.1592 232.613 93.2227 230.468 93.2227H229.579V85.8467H234.848ZM241.113 95.0762C240.668 95.0762 240.287 94.708 240.3 94.251C240.287 93.8066 240.668 93.4385 241.113 93.4385C241.557 93.4385 241.925 93.8066 241.925 94.251C241.925 94.708 241.557 95.0762 241.113 95.0762Z" fill="black"/>
<mask id="path-4-inside-1_4082_3900" fill="white">
<path d="M0 116H134.833V160H0V116Z"/>
</mask>
<path d="M0 116.333H134.833V115.667H0V116.333Z" fill="#3C3C43" fill-opacity="0.36" mask="url(#path-4-inside-1_4082_3900)"/>
<path d="M42.7285 132.96V134.039H33.9463V132.96H37.6816V130.769H38.9766V132.96H42.7285ZM38.3457 135.268C40.3379 135.268 41.7988 136.679 41.8154 138.654C41.7988 140.613 40.3379 142.041 38.3457 142.041C36.3369 142.041 34.8594 140.613 34.8594 138.654C34.8594 136.679 36.3369 135.268 38.3457 135.268ZM38.3457 136.38C37.0508 136.396 36.0713 137.343 36.0879 138.654C36.0713 139.982 37.0508 140.929 38.3457 140.912C39.6406 140.929 40.6201 139.982 40.6201 138.654C40.6201 137.343 39.6406 136.396 38.3457 136.38ZM46.1816 130.586V145.345H44.8867V137.891H42.4131V136.795H44.8867V130.586H46.1816ZM61.6859 137.891V138.97H48.2387V137.891H51.5756V135.815C50.3969 135.359 49.7328 134.604 49.7328 133.607C49.7328 131.864 51.725 130.868 54.9623 130.868C58.1664 130.868 60.1752 131.864 60.1752 133.607C60.1752 134.595 59.5194 135.351 58.349 135.799V137.891H61.6859ZM54.9623 140.099C58.1332 140.099 60.0258 141.012 60.0424 142.705C60.0258 144.382 58.1332 145.312 54.9623 145.312C51.7582 145.312 49.8656 144.382 49.8656 142.705C49.8656 141.012 51.7582 140.099 54.9623 140.099ZM54.9623 141.095C52.5883 141.111 51.1771 141.692 51.1938 142.705C51.1771 143.701 52.5883 144.299 54.9623 144.299C57.3031 144.299 58.7309 143.701 58.7309 142.705C58.7309 141.692 57.3031 141.111 54.9623 141.095ZM54.9623 131.897C52.5551 131.897 51.0609 132.545 51.0775 133.607C51.0609 134.687 52.5551 135.317 54.9623 135.317C57.3529 135.317 58.8471 134.687 58.8471 133.607C58.8471 132.545 57.3529 131.897 54.9623 131.897ZM52.8705 137.891H57.0541V136.164C56.4315 136.272 55.7343 136.33 54.9623 136.33C54.1903 136.33 53.4931 136.272 52.8705 136.164V137.891ZM77.9357 130.586V135.085H80.1604V136.181H77.9357V141.477H76.6408V130.586H77.9357ZM78.6164 143.934V145.029H68.7053V140.348H69.9836V143.934H78.6164ZM70.548 131.632C72.7561 131.632 74.4162 133.126 74.4328 135.268C74.4162 137.409 72.7561 138.903 70.548 138.903C68.34 138.903 66.6633 137.409 66.6799 135.268C66.6633 133.126 68.34 131.632 70.548 131.632ZM70.548 132.777C69.0871 132.777 67.9416 133.807 67.9582 135.268C67.9416 136.729 69.0871 137.758 70.548 137.758C72.0422 137.758 73.1545 136.729 73.1545 135.268C73.1545 133.807 72.0422 132.777 70.548 132.777ZM96.0947 130.586V134.521H98.3193V135.633H96.0947V139.484H94.7998V130.586H96.0947ZM96.0947 140.331V145.146H86.7812V140.331H96.0947ZM88.0596 141.377V144.083H94.7998V141.377H88.0596ZM93.3887 132.163V133.242H84.5898V132.163H88.3418V130.47H89.6367V132.163H93.3887ZM88.9893 133.973C91.1143 133.973 92.5254 135.019 92.542 136.596C92.5254 138.206 91.1143 139.235 88.9893 139.235C86.8477 139.235 85.4199 138.206 85.4365 136.596C85.4199 135.019 86.8477 133.973 88.9893 133.973ZM88.9893 134.985C87.5947 134.985 86.665 135.633 86.6816 136.596C86.665 137.608 87.5947 138.223 88.9893 138.239C90.3672 138.223 91.2969 137.608 91.3135 136.596C91.2969 135.633 90.3672 134.985 88.9893 134.985Z" fill="#007AFF"/>
<rect width="0.33333" height="44" transform="translate(134.833 116)" fill="#3C3C43" fill-opacity="0.36"/>
<mask id="path-7-inside-2_4082_3900" fill="white">
<path d="M135.167 116H270V160H135.167V116Z"/>
</mask>
<path d="M135.167 116.333H270V115.667H135.167V116.333Z" fill="#3C3C43" fill-opacity="0.36" mask="url(#path-7-inside-2_4082_3900)"/>
<path d="M196.538 132.777V134.255H187.706V132.777H191.175V130.686H193.035V132.777H196.538ZM192.122 135.234C194.164 135.234 195.674 136.712 195.691 138.771C195.674 140.796 194.164 142.29 192.122 142.29C190.046 142.29 188.519 140.796 188.519 138.771C188.519 136.712 190.046 135.234 192.122 135.234ZM192.122 136.795C191.042 136.795 190.229 137.575 190.246 138.771C190.229 139.966 191.042 140.729 192.122 140.713C193.184 140.729 193.998 139.966 193.998 138.771C193.998 137.575 193.184 136.795 192.122 136.795ZM200.256 130.47V145.478H198.43V138.04H196.222V136.529H198.43V130.47H200.256ZM215.644 137.691V139.169H201.965V137.691H205.152V135.782C204.023 135.309 203.376 134.554 203.376 133.574C203.376 131.781 205.484 130.719 208.788 130.719C212.092 130.719 214.183 131.781 214.2 133.574C214.192 134.562 213.544 135.317 212.407 135.782V137.691H215.644ZM208.788 140.082C212.025 140.065 213.968 141.028 213.984 142.755C213.968 144.498 212.025 145.444 208.788 145.444C205.517 145.444 203.558 144.498 203.558 142.755C203.558 141.028 205.517 140.065 208.788 140.082ZM208.788 141.477C206.597 141.477 205.418 141.908 205.434 142.755C205.418 143.602 206.597 144.05 208.788 144.05C210.93 144.05 212.125 143.602 212.141 142.755C212.125 141.908 210.93 141.477 208.788 141.477ZM208.788 132.146C206.563 132.146 205.285 132.645 205.302 133.574C205.285 134.487 206.563 134.969 208.788 134.969C210.996 134.969 212.291 134.487 212.291 133.574C212.291 132.645 210.996 132.146 208.788 132.146ZM207.012 137.691H210.564V136.264C210.025 136.338 209.427 136.38 208.788 136.38C208.149 136.38 207.551 136.338 207.012 136.264V137.691Z" fill="#007AFF"/>
<rect x="167" y="118" width="69" height="40" rx="14" stroke="#FF625D" stroke-width="4" stroke-dasharray="8 8"/>
</g>
<defs>
<filter id="filter0_b_4082_3900" x="-80" y="-80" width="430" height="320" filterUnits="userSpaceOnUse" color-interpolation-filters="sRGB">
<feFlood flood-opacity="0" result="BackgroundImageFix"/>
<feGaussianBlur in="BackgroundImageFix" stdDeviation="40"/>
<feComposite in2="SourceAlpha" operator="in" result="effect1_backgroundBlur_4082_3900"/>
<feBlend mode="normal" in="SourceGraphic" in2="effect1_backgroundBlur_4082_3900" result="shape"/>
</filter>
</defs>
</svg>
