<svg width="24" height="24" viewBox="0 0 24 24" fill="none" xmlns="http://www.w3.org/2000/svg">
<path d="M2.56689 23.2969C2.56689 23.685 2.88189 24 3.27001 24H20.145C20.5331 24 20.8481 23.685 20.8481 23.2969V21.1406H2.56689V23.2969ZM11.7075 5.625C7.83048 5.625 4.67626 8.77922 4.67626 12.6562V19.7344H18.7388V12.6562C18.7388 8.77922 15.5845 5.625 11.7075 5.625ZM11.6606 4.21875C12.0488 4.21875 12.3638 3.90375 12.3638 3.51562V0.703125C12.3638 0.315 12.0488 0 11.6606 0C11.2725 0 10.9575 0.315 10.9575 0.703125V3.51562C10.9575 3.90375 11.2725 4.21875 11.6606 4.21875ZM6.1247 5.2125C6.31923 5.55 6.75001 5.66344 7.08517 5.46984C7.42173 5.27578 7.53658 4.84547 7.34251 4.50937L5.93626 2.07375C5.7422 1.73766 5.31189 1.62234 4.9758 1.81641C4.63923 2.01047 4.52439 2.44078 4.71845 2.77688L6.1247 5.2125ZM3.74767 8.84156C3.94173 8.50547 3.82642 8.07516 3.49033 7.88109L1.0547 6.47484C0.718608 6.28078 0.288296 6.39609 0.0942335 6.73219C-0.099829 7.06828 0.0154835 7.49859 0.351577 7.69266L2.7872 9.09891C3.12189 9.29203 3.55267 9.17953 3.74767 8.84156ZM16.3303 5.46984C16.665 5.66297 17.0958 5.55 17.2908 5.2125L18.697 2.77688C18.8911 2.44078 18.7758 2.01047 18.4397 1.81641C18.1036 1.62234 17.6733 1.73719 17.4792 2.07375L16.073 4.50937C15.8789 4.84547 15.9942 5.27578 16.3303 5.46984ZM23.3208 6.73219C23.1267 6.39562 22.6964 6.28078 22.3603 6.47484L19.9247 7.88109C19.5886 8.07516 19.4733 8.50547 19.6674 8.84156C19.8619 9.17906 20.2927 9.2925 20.6278 9.09891L23.0635 7.69266C23.3995 7.49859 23.5149 7.06828 23.3208 6.73219Z" fill="#FF625D"/>
</svg>
