<svg width="28" height="28" viewBox="0 0 28 28" fill="none" xmlns="http://www.w3.org/2000/svg">
<g clip-path="url(#clip0_3548_2622)">
<path d="M13.5033 13.4876C15.3562 13.4876 16.9607 12.8231 18.2721 11.5117C19.5829 10.2009 20.2474 8.59688 20.2474 6.74352C20.2474 4.89016 19.5829 3.28672 18.2715 1.97531C16.9607 0.664453 15.3562 0 13.5033 0C11.6505 0 10.046 0.664453 8.73514 1.97531C7.42428 3.28617 6.75928 4.8907 6.75928 6.74352C6.75928 8.59633 7.42428 10.2009 8.73514 11.5123C10.0465 12.8231 11.6511 13.4876 13.5033 13.4876ZM9.89561 3.13578C10.9013 2.13008 12.0815 1.64062 13.5033 1.64062C14.9252 1.64062 16.1054 2.12953 17.1116 3.13578C18.1173 4.14203 18.6068 5.32219 18.6068 6.74352C18.6068 8.16484 18.1173 9.34555 17.1116 10.3518C16.1054 11.358 14.9252 11.847 13.5033 11.847C12.0815 11.847 10.9019 11.3575 9.89561 10.3518C8.88936 9.34609 8.40045 8.16539 8.40045 6.74352C8.40045 5.32164 8.8899 4.14203 9.89561 3.13578Z" fill="black"/>
<path d="M25.304 21.5305C25.2663 20.9847 25.1897 20.3897 25.0771 19.7613C24.9633 19.1281 24.8173 18.5298 24.6418 17.9824C24.4608 17.4169 24.2147 16.8585 23.9101 16.3231C23.5945 15.7675 23.2237 15.2841 22.8076 14.886C22.3722 14.4698 21.8396 14.1351 21.2238 13.8906C20.6097 13.6478 19.9294 13.5248 19.2015 13.5248C18.9155 13.5248 18.6393 13.6418 18.1055 13.9896C17.7769 14.204 17.3924 14.4517 16.9637 14.7257C16.5967 14.9592 16.1001 15.1785 15.486 15.3765C14.8872 15.5701 14.279 15.6685 13.6791 15.6685C13.0792 15.6685 12.4711 15.5701 11.8722 15.3765C11.2592 15.1785 10.7621 14.9598 10.3957 14.7257C9.97076 14.4545 9.58631 14.2062 9.25271 13.9891C8.71951 13.6413 8.44279 13.5242 8.15678 13.5242C7.42889 13.5242 6.74857 13.6473 6.13498 13.8906C5.5192 14.1345 4.98654 14.4692 4.55068 14.886C4.13451 15.2841 3.76373 15.7675 3.44818 16.3226C3.14412 16.858 2.89803 17.4158 2.71701 17.9818C2.54201 18.5287 2.39545 19.1275 2.28225 19.7602C2.16959 20.3881 2.09303 20.9831 2.05529 21.5299C2.01811 22.0648 1.99951 22.621 1.99951 23.1831C1.99951 24.6449 2.46436 25.8278 3.38037 26.7006C4.28545 27.562 5.48256 27.9984 6.93889 27.9984H20.421C21.8768 27.9984 23.0739 27.562 23.979 26.7006C24.8955 25.8284 25.3598 24.6449 25.3598 23.1831C25.3598 22.6188 25.3407 22.0626 25.3029 21.5294L25.304 21.5305ZM22.848 25.5134C22.2503 26.0827 21.4562 26.3588 20.421 26.3588H6.93943C5.9042 26.3588 5.11014 26.0821 4.5124 25.5134C3.92615 24.955 3.64123 24.1932 3.64123 23.1842C3.64123 22.6598 3.65873 22.1413 3.69318 21.6442C3.72709 21.1564 3.796 20.6205 3.89826 20.0506C3.99943 19.4879 4.12795 18.9602 4.28107 18.4822C4.42764 18.0239 4.62779 17.57 4.87607 17.1331C5.11287 16.7163 5.38576 16.3592 5.68654 16.071C5.96764 15.8014 6.32256 15.581 6.74037 15.4159C7.12701 15.2627 7.56123 15.1791 8.03264 15.1665C8.09006 15.1971 8.19232 15.2551 8.35803 15.3634C8.69545 15.5832 9.08428 15.8342 9.51412 16.1082C9.99865 16.4172 10.6226 16.6961 11.3686 16.9367C12.1309 17.1834 12.9086 17.3086 13.6802 17.3086C14.4519 17.3086 15.2301 17.1834 15.9919 16.9373C16.7383 16.6961 17.3623 16.4172 17.8474 16.1082C18.2871 15.8271 18.665 15.5838 19.0024 15.3634C19.1681 15.2556 19.2704 15.1971 19.3278 15.1665C19.7992 15.1791 20.234 15.2627 20.6206 15.4159C21.0384 15.581 21.3928 15.802 21.6744 16.071C21.9752 16.3587 22.2476 16.7163 22.4849 17.1331C22.7332 17.57 22.9339 18.0239 23.0805 18.4817C23.2336 18.9602 23.3626 19.4879 23.4633 20.0501C23.5655 20.6205 23.6344 21.157 23.6683 21.6437C23.7033 22.1397 23.7208 22.6576 23.7208 23.1837C23.7208 24.1927 23.4359 24.9545 22.8491 25.5123L22.848 25.5134Z" fill="black"/>
</g>
<defs>
<clipPath id="clip0_3548_2622">
<rect width="23.3603" height="28" fill="white" transform="translate(2)"/>
</clipPath>
</defs>
</svg>
