<svg width="28" height="28" viewBox="0 0 28 28" fill="none" xmlns="http://www.w3.org/2000/svg">
<g clip-path="url(#clip0_3548_3680)">
<path d="M13.5033 13.4876C15.3562 13.4876 16.9607 12.8231 18.2721 11.5117C19.5829 10.2009 20.2474 8.59688 20.2474 6.74352C20.2474 4.89016 19.5829 3.28672 18.2715 1.97531C16.9607 0.664453 15.3562 0 13.5033 0C11.6505 0 10.046 0.664453 8.73514 1.97531C7.42428 3.28617 6.75928 4.8907 6.75928 6.74352C6.75928 8.59633 7.42428 10.2009 8.73514 11.5123C10.0465 12.8231 11.6505 13.4876 13.5033 13.4876Z" fill="#FF625D"/>
<path d="M25.304 21.5305C25.2663 20.9847 25.1897 20.3897 25.0771 19.7613C24.9633 19.1281 24.8173 18.5298 24.6418 17.9824C24.4608 17.4169 24.2147 16.8585 23.9106 16.3231C23.5951 15.7675 23.2243 15.2841 22.8081 14.886C22.3728 14.4698 21.8401 14.1351 21.2244 13.8906C20.6102 13.6478 19.9299 13.5248 19.202 13.5248C18.916 13.5248 18.6398 13.6418 18.1061 13.9896C17.7774 14.204 17.3929 14.4517 16.9642 14.7257C16.5972 14.9592 16.1007 15.1785 15.4865 15.3765C14.8877 15.5701 14.2796 15.6685 13.6797 15.6685C13.0797 15.6685 12.4716 15.5701 11.8722 15.3765C11.2592 15.1785 10.7621 14.9598 10.3957 14.7257C9.97076 14.4545 9.58631 14.2062 9.25271 13.9891C8.71951 13.6413 8.44279 13.5242 8.15678 13.5242C7.42889 13.5242 6.74857 13.6473 6.13498 13.8906C5.5192 14.1345 4.98654 14.4692 4.55068 14.886C4.13451 15.2841 3.76373 15.7675 3.44818 16.3226C3.14412 16.858 2.89803 17.4158 2.71701 17.9818C2.54201 18.5287 2.39545 19.1275 2.28225 19.7602C2.16959 20.3881 2.09303 20.9831 2.05529 21.5299C2.01811 22.0659 1.99951 22.6215 1.99951 23.1831C1.99951 24.6449 2.46436 25.8278 3.38037 26.7006C4.28545 27.562 5.48256 27.9984 6.93889 27.9984H20.421C21.8768 27.9984 23.0739 27.562 23.979 26.7006C24.8955 25.8284 25.3598 24.6449 25.3598 23.1831C25.3598 22.6188 25.3407 22.0626 25.3029 21.5294L25.304 21.5305Z" fill="#FF625D"/>
</g>
<defs>
<clipPath id="clip0_3548_3680">
<rect width="23.3603" height="28" fill="white" transform="translate(2)"/>
</clipPath>
</defs>
</svg>
